PathFileType	4	(X/Y/Z)	C:\Users\WrightLab\Desktop\Jo\P1.2Trial32.trc
DataRate	CameraRate	NumFrames	NumMarkers	Units	OrigDataRate	OrigDataStartFrame	OrigNumFrames
100.00	100.00	       28	19	mm	100.00	91	       724
Frame#	Time	Headset_Front			Headset_Back			Headset_Left			Headset_Right			Left_Shoulder			Right_Shoulder			Sternum			C7			Left Elbow			Right Elbow			Left Wrist			Right Wrist			Left ASIS			Right ASIS			S2			Left Knee			Right Knee			Left Ankle			Right Ankle			
		X1	Y1	Z1	X2	Y2	Z2	X3	Y3	Z3	X4	Y4	Z4	X5	Y5	Z5	X6	Y6	Z6	X7	Y7	Z7	X8	Y8	Z8	X9	Y9	Z9	X10	Y10	Z10	X11	Y11	Z11	X12	Y12	Z12	X13	Y13	Z13	X14	Y14	Z14	X15	Y15	Z15	X16	Y16	Z16	X17	Y17	Z17	X18	Y18	Z18	X19	Y19	Z19	

91	0.900				-286.38446	815.14288	-1443.56177							63.56160	1217.83984	-1525.93152										133.27835	927.35333	-1566.39026				123.06079	710.46759	-1443.07593	-419.42542	694.61853	-1455.66211	-8.18259	836.82776	-1430.01721				-131.83008	888.60358	-1718.61414							33.85973	45.99661	-1581.39685				
92	0.910				-287.63150	814.82050	-1444.00867							63.44904	1216.96130	-1523.78308										133.12317	927.16119	-1567.31262				121.60891	709.19635	-1442.38550	-420.56989	695.13788	-1456.74280	-9.89202	836.10553	-1431.34497				-132.78973	888.64673	-1718.55945							33.72998	46.07953	-1581.31775				
93	0.920				-289.36545	816.06982	-1442.40283							62.97922	1216.29944	-1522.36914										132.43156	926.72314	-1565.93384				120.57851	709.53296	-1441.21973	-422.44489	696.07544	-1458.21033	-11.05162	834.97461	-1433.82629				-133.86597	888.69287	-1718.91541							33.72998	46.07953	-1581.31775				
94	0.930				-289.95837	815.14954	-1445.70789							62.57988	1216.27209	-1522.28040										131.58473	926.78125	-1565.18921				120.06477	707.70575	-1443.22705	-424.15906	696.44171	-1459.13318	-12.36242	834.29138	-1435.45825				-134.77171	888.61420	-1718.56616							33.47966	46.16133	-1581.34241				
95	0.940				-292.43762	816.41113	-1441.67358							62.31065	1214.73804	-1518.86804										130.25046	926.49451	-1564.49744				117.43990	708.03387	-1439.57019	-425.64267	696.96893	-1460.01917	-14.25935	834.00421	-1432.28101				-135.71690	888.43439	-1718.52148							33.47966	46.16133	-1581.34241				
96	0.950				-293.89874	815.54974	-1443.26880							61.85928	1214.66467	-1518.97302										128.45807	924.87158	-1559.12170				115.79265	709.49603	-1436.47913	-427.25549	697.29968	-1460.25427	-16.13062	833.61127	-1428.91724				-136.73796	888.69141	-1719.08167							33.57265	46.24002	-1581.08667				
97	0.960				-295.93369	816.40094	-1443.35144							61.35141	1214.56494	-1519.17542										128.07712	924.12433	-1558.15662	-304.66061	386.57257	-1505.50952	115.40106	707.84229	-1438.28772	-428.99710	698.48206	-1461.71790	-16.73726	832.33124	-1430.04297				-137.59944	888.40137	-1718.76111							33.47908	46.33783	-1580.94397				
98	0.970				-296.45667	815.86731	-1446.30127							60.04827	1214.23669	-1518.84216										127.25064	923.56763	-1557.45801	-306.89728	386.79968	-1502.85254	113.17326	707.16412	-1435.07190	-430.64828	698.71228	-1462.09033	-17.90648	832.78345	-1427.94702				-138.48450	888.32001	-1718.98633							32.74017	45.48872	-1580.19617				
99	0.980				-298.96057	817.34094	-1442.46558							59.49680	1214.12317	-1519.08813										127.14839	923.36926	-1558.25061	-308.01120	385.82263	-1504.17310	112.26801	706.93427	-1435.75623	-432.72272	699.50403	-1463.18311	-19.59958	832.14972	-1429.14392				-139.34108	888.11926	-1718.94617							33.17541	46.41983	-1581.01355				
100	0.990				-300.66190	817.78711	-1441.24768							58.62838	1213.66492	-1518.57654	-279.82373	40.29561	-1552.97522							126.24070	922.70654	-1558.04565	-308.61551	384.64929	-1507.51416	110.21542	706.01971	-1433.70557	-435.16687	698.02551	-1469.78015	-22.31249	832.22687	-1428.43689				-140.09927	887.65619	-1718.38501							33.09366	46.66393	-1580.53076				
101	1.000				-302.06860	817.73383	-1441.95251							57.48172	1213.61255	-1519.23792	-280.36774	40.43798	-1550.96008							125.20639	922.72437	-1557.90796	-310.62152	385.92953	-1502.98987	108.90979	705.10138	-1433.64746	-436.51581	698.36658	-1467.78125	-23.97909	831.60394	-1430.68127				-140.93091	887.48523	-1718.32751							33.05893	46.90896	-1580.00659				
102	1.010				-303.00562	816.27673	-1447.11609							57.08275	1212.56787	-1517.74414	-281.11127	41.06305	-1548.77966							122.47072	921.94244	-1554.49963	-312.91644	387.73367	-1499.63586	107.69207	705.27069	-1433.24536	-437.95447	700.69611	-1463.80225	-24.80771	831.13428	-1430.64294				-141.80623	886.98682	-1717.78308							32.94197	46.96400	-1579.98083				
103	1.020				-305.49426	817.82513	-1443.22058							56.29207	1211.77209	-1516.80383	-281.13721	40.85461	-1548.89136							121.49880	920.19141	-1551.13428	-314.00140	387.38416	-1500.87219	105.86758	705.04663	-1431.14526	-440.27930	698.94269	-1471.85339	-25.53222	831.26324	-1429.40552				-142.72075	886.62720	-1717.33032							32.94197	46.96400	-1579.98083				
104	1.030				-307.90262	819.51270	-1438.90674							55.48202	1210.95764	-1515.94092	-281.10922	40.78211	-1548.69885							120.32714	919.61688	-1551.40845	-315.01285	386.46884	-1501.58948	104.75343	703.36987	-1431.33435	-443.50159	699.57745	-1471.77051	-28.30263	834.24225	-1420.93518				-143.69263	886.11609	-1716.66870							32.94197	46.96400	-1579.98083				
105	1.040	-436.64053	958.64789	-1560.73413	-308.41422	818.75201	-1441.71667							54.94987	1209.84875	-1514.69287	-280.52341	39.46452	-1551.27478							119.76719	919.69519	-1553.29431	-315.44418	385.47473	-1503.92273	103.77177	703.15466	-1430.53552	-443.85580	702.24646	-1465.74072	-29.23677	833.63025	-1421.76538				-144.69864	885.80762	-1716.24817	0.97158	401.07031	-1466.11523				33.09484	47.15591	-1579.41858				
106	1.050	-438.31543	959.23798	-1561.61743	-309.03806	817.74500	-1445.12817							53.62066	1209.73291	-1515.55798	-280.56393	39.21760	-1551.46777							117.61845	919.24084	-1552.10681	-317.35864	386.29706	-1499.51184	101.12926	704.06970	-1424.73840	-445.50198	702.07147	-1465.03650	-30.61857	832.67401	-1427.06433				-145.81693	885.30530	-1715.54810	0.95169	400.92065	-1466.25024				33.01892	47.24070	-1579.29114				
107	1.060	-439.85001	959.83423	-1562.61926	-311.41946	819.13647	-1440.60889							52.55656	1209.18713	-1515.36279	-280.82312	39.19317	-1549.43701							115.70483	918.58051	-1550.82483	-318.45230	386.22852	-1497.19324	100.13162	704.02472	-1425.36548	-447.46088	700.28223	-1470.69812	-33.35680	831.80011	-1427.87000				-146.88969	884.73291	-1714.95972	-0.13359	400.81027	-1462.66602				33.18847	47.38417	-1578.82422				
108	1.070	-441.22900	960.36151	-1563.18835	-313.37915	819.14392	-1440.80249							50.90024	1208.74536	-1515.35840	-280.78241	39.18487	-1549.18042							114.86678	917.76080	-1550.87366	-318.84177	385.30768	-1499.28748	98.81658	702.90076	-1424.72595	-450.51764	700.72961	-1475.85950	-34.50972	831.97205	-1428.00916				-148.07101	884.42358	-1714.57690	-0.28985	400.28409	-1463.80688	-87.09621	1267.18982	-902.64478	33.18847	47.38417	-1578.82422				
109	1.080	-442.50986	960.35883	-1562.77148	-314.63974	819.48486	-1440.73145							49.61540	1209.14734	-1517.44739	-280.72958	38.40412	-1548.50525							113.69283	917.01514	-1550.98718	-319.82141	385.17297	-1498.22388	96.69482	703.10760	-1422.58972	-451.78903	702.90674	-1466.22986	-36.09610	832.59924	-1423.85742				-149.12953	883.76971	-1713.75122	-1.26126	400.69876	-1462.15344	-87.70868	1266.47131	-901.82507	33.35500	47.69685	-1577.97766				
110	1.090	-443.90219	960.58582	-1562.94421	-315.13300	818.84479	-1443.44324							48.66540	1208.89978	-1518.14990	-280.76093	38.23013	-1548.65894							111.22808	915.76825	-1548.14063	-320.73755	384.71951	-1497.68994	95.36403	702.90381	-1423.13098	-453.31488	700.99353	-1472.16895	-37.00975	832.73004	-1422.34387				-150.32700	883.29401	-1713.13086	-2.16960	400.59872	-1461.12512	-89.20404	1267.06592	-904.50885	33.71109	48.17295	-1576.60266				
111	1.100	-445.50818	960.65875	-1562.83398	-317.03421	819.10522	-1441.59192							47.61428	1208.25073	-1517.74915	-280.66714	38.33379	-1548.09802							108.66818	915.72803	-1547.19800	-321.33505	383.56772	-1498.39856	94.20053	702.42615	-1423.52905	-455.35156	703.89886	-1467.66248	-38.63539	833.51025	-1418.43298				-151.32953	882.55078	-1712.00830	-2.33632	399.88104	-1462.31812	-89.72235	1266.89404	-905.31256	33.64693	48.27273	-1576.43127				
112	1.110	-447.32773	960.92236	-1563.30896	-318.83676	819.74377	-1439.77539							45.83143	1208.01538	-1518.21423	-280.65701	38.25654	-1548.01563							107.47059	915.18781	-1547.46033				93.00874	701.69727	-1421.88269	-456.46436	704.13489	-1468.32263	-40.66877	833.55334	-1417.41199				-152.54413	881.98621	-1711.36243	-4.61917	401.39862	-1456.11890	-91.05878	1266.36169	-905.17316	33.94785	48.48468	-1575.69958				
113	1.120	-449.03101	961.19592	-1563.78650	-320.68665	820.54803	-1438.78711							43.87053	1208.42517	-1520.08862	-280.79153	37.68121	-1547.02832							106.97866	914.94635	-1549.40283	-323.49030	385.49313	-1494.63013	90.78971	703.72650	-1417.71362	-460.40900	700.99268	-1475.08740	-42.19474	832.51819	-1420.50940				-153.62704	881.34003	-1710.62012	-5.63644	402.06830	-1454.08105	-92.11053	1266.14990	-905.87787	33.94785	48.48468	-1575.69958				
114	1.130	-450.49936	961.33887	-1564.00818	-321.27805	819.51935	-1441.97046							43.02112	1206.72815	-1517.15417	-280.77441	37.63061	-1546.90894							104.33225	915.01617	-1548.75232				90.51654	702.86694	-1419.93640	-460.94431	700.30927	-1477.72632	-43.37588	831.52734	-1423.06165				-154.76765	880.92743	-1709.91895	-5.71673	401.80206	-1454.66211	-93.47243	1266.46008	-908.31873	34.13257	48.76605	-1574.90869				
115	1.140	-451.87259	961.03601	-1563.37622	-322.94333	820.05011	-1438.83435							42.06515	1206.54932	-1517.54578	-280.75616	37.62360	-1546.79333							102.09489	914.69855	-1547.44739	-324.66806	385.66861	-1490.85852	87.75238	703.28973	-1414.53833	-462.13336	704.63867	-1468.94067	-44.35926	831.48657	-1424.33252				-155.86429	880.41571	-1709.30774	-5.79944	401.51703	-1455.25903	-94.49418	1266.49500	-909.74774	34.03744	48.85411	-1574.78955				
116	1.150	-453.44635	960.70068	-1562.95020	-324.70972	820.85278	-1436.85388							40.99273	1205.75000	-1516.49719	-280.73904	37.55684	-1546.66992							101.54027	914.36505	-1549.79602	-325.44687	385.18066	-1490.30432	87.43791	702.38556	-1417.09192	-464.10526	703.38184	-1469.69678	-47.26847	833.80499	-1416.34888				-157.00082	879.64471	-1708.23486	-8.21165	402.11169	-1448.96863	-95.98400	1266.39124	-911.01788	33.53470	49.11562	-1573.11816				
117	1.160	-455.14444	960.58313	-1563.02551	-326.27225	820.17657	-1436.45935							38.87068	1205.04248	-1515.73376	-280.66666	37.64077	-1546.23779							100.13601	914.29059	-1549.96033	-325.76715	384.42358	-1492.01282	85.71642	702.91174	-1415.67773	-466.26999	702.48431	-1471.89954	-47.53378	833.11127	-1418.18311				-158.04788	879.21313	-1707.45752	-8.79015	400.93866	-1450.11975	-97.30152	1265.69617	-910.59668	33.76995	49.47736	-1572.10388				
118	1.170	-456.80585	960.75067	-1563.95728	-327.70749	820.23090	-1436.51636							36.83711	1205.89722	-1518.20349										97.44932	914.54291	-1548.56177	-326.60861	384.57883	-1491.91760	84.85069	702.29919	-1416.13416	-467.38126	703.94098	-1468.48792	-48.75766	833.48395	-1416.54871				-159.16464	878.54218	-1706.67358	-10.41092	401.65228	-1447.77722	-98.92624	1265.96350	-913.26361	33.78159	49.53363	-1571.96692				
